<mxfile host="app.diagrams.net" modified="2024-04-03T20:05:47.889Z" agent="Mozilla/5.0 (Windows NT 10.0; Win64; x64) AppleWebKit/537.36 (KHTML, like Gecko) Chrome/123.0.0.0 Safari/537.36" etag="PzDfkCPZ51eNCv9Y24KS" version="24.2.2" type="google">
  <diagram id="C5RBs43oDa-KdzZeNtuy" name="Page-1">
    <mxGraphModel grid="1" page="1" gridSize="10" guides="1" tooltips="1" connect="1" arrows="1" fold="1" pageScale="1" pageWidth="827" pageHeight="1169" math="0" shadow="0">
      <root>
        <mxCell id="WIyWlLk6GJQsqaUBKTNV-0" />
        <mxCell id="WIyWlLk6GJQsqaUBKTNV-1" parent="WIyWlLk6GJQsqaUBKTNV-0" />
        <mxCell id="l2nz5t12sQx5QNXhWNsF-1" value="&lt;div style=&quot;color: #ffffff;background-color: #111111;font-family: Consolas, &#39;Courier New&#39;, monospace;font-weight: normal;font-size: 14px;line-height: 19px;white-space: pre;&quot;&gt;&lt;span style=&quot;color: #da55ff;&quot;&gt;Model&lt;/span&gt;&amp;lt;&lt;span style=&quot;color: #da55ff;&quot;&gt;T&lt;/span&gt;&amp;gt; &lt;/div&gt;" style="swimlane;fontStyle=1;align=center;verticalAlign=top;childLayout=stackLayout;horizontal=1;startSize=26;horizontalStack=0;resizeParent=1;resizeParentMax=0;resizeLast=0;collapsible=1;marginBottom=0;whiteSpace=wrap;html=1;" vertex="1" parent="WIyWlLk6GJQsqaUBKTNV-1">
          <mxGeometry x="-598" width="370" height="160" as="geometry" />
        </mxCell>
        <mxCell id="l2nz5t12sQx5QNXhWNsF-2" value="&lt;div style=&quot;color: rgb(255, 255, 255); background-color: rgb(17, 17, 17); font-family: Consolas, &amp;quot;Courier New&amp;quot;, monospace; font-size: 14px; line-height: 19px; white-space: pre;&quot;&gt;&lt;span style=&quot;color: #1eabff;font-style: italic;&quot;&gt;data&lt;/span&gt;: &lt;span style=&quot;color: #da55ff;&quot;&gt;Partial&lt;/span&gt;&amp;lt;&lt;span style=&quot;color: #da55ff;&quot;&gt;T&lt;/span&gt;&amp;gt;&lt;/div&gt;&lt;div style=&quot;color: rgb(255, 255, 255); background-color: rgb(17, 17, 17); font-family: Consolas, &amp;quot;Courier New&amp;quot;, monospace; font-size: 14px; line-height: 19px; white-space: pre;&quot;&gt;&lt;div style=&quot;line-height: 19px;&quot;&gt;&lt;span style=&quot;color: #1eabff;font-style: italic;&quot;&gt;events&lt;/span&gt;: &lt;span style=&quot;color: #da55ff;&quot;&gt;IEvents&lt;/span&gt;&lt;/div&gt;&lt;/div&gt;" style="text;strokeColor=none;fillColor=none;align=left;verticalAlign=top;spacingLeft=4;spacingRight=4;overflow=hidden;rotatable=0;points=[[0,0.5],[1,0.5]];portConstraint=eastwest;whiteSpace=wrap;html=1;" vertex="1" parent="l2nz5t12sQx5QNXhWNsF-1">
          <mxGeometry y="26" width="370" height="54" as="geometry" />
        </mxCell>
        <mxCell id="l2nz5t12sQx5QNXhWNsF-3" value="" style="line;strokeWidth=1;fillColor=none;align=left;verticalAlign=middle;spacingTop=-1;spacingLeft=3;spacingRight=3;rotatable=0;labelPosition=right;points=[];portConstraint=eastwest;strokeColor=inherit;" vertex="1" parent="l2nz5t12sQx5QNXhWNsF-1">
          <mxGeometry y="80" width="370" height="8" as="geometry" />
        </mxCell>
        <mxCell id="l2nz5t12sQx5QNXhWNsF-4" value="&lt;div style=&quot;color: rgb(255, 255, 255); background-color: rgb(17, 17, 17); font-family: Consolas, &amp;quot;Courier New&amp;quot;, monospace; font-size: 14px; line-height: 19px; white-space: pre;&quot;&gt;&lt;span style=&quot;color: #ff6000;&quot;&gt;emitChanges&lt;/span&gt;(&lt;span style=&quot;color: #1eabff;font-style: italic;&quot;&gt;event&lt;/span&gt;: &lt;span style=&quot;color: #da55ff;&quot;&gt;string&lt;/span&gt;, &lt;span style=&quot;color: #1eabff;font-style: italic;&quot;&gt;payload&lt;/span&gt;&lt;span style=&quot;color: #ffcf13;&quot;&gt;?&lt;/span&gt;: &lt;span style=&quot;color: #da55ff;&quot;&gt;object&lt;/span&gt;)&lt;/div&gt;" style="text;strokeColor=none;fillColor=none;align=left;verticalAlign=top;spacingLeft=4;spacingRight=4;overflow=hidden;rotatable=0;points=[[0,0.5],[1,0.5]];portConstraint=eastwest;whiteSpace=wrap;html=1;" vertex="1" parent="l2nz5t12sQx5QNXhWNsF-1">
          <mxGeometry y="88" width="370" height="72" as="geometry" />
        </mxCell>
        <mxCell id="l2nz5t12sQx5QNXhWNsF-6" value="" style="endArrow=classic;html=1;rounded=0;" edge="1" parent="WIyWlLk6GJQsqaUBKTNV-1">
          <mxGeometry width="50" height="50" relative="1" as="geometry">
            <mxPoint x="-680" y="120" as="sourcePoint" />
            <mxPoint x="-680" y="320" as="targetPoint" />
          </mxGeometry>
        </mxCell>
        <mxCell id="l2nz5t12sQx5QNXhWNsF-7" value="" style="endArrow=none;html=1;rounded=0;" edge="1" parent="WIyWlLk6GJQsqaUBKTNV-1">
          <mxGeometry width="50" height="50" relative="1" as="geometry">
            <mxPoint x="-680" y="120" as="sourcePoint" />
            <mxPoint x="-598" y="120" as="targetPoint" />
          </mxGeometry>
        </mxCell>
        <mxCell id="l2nz5t12sQx5QNXhWNsF-12" value="&lt;div style=&quot;color: rgb(255, 255, 255); background-color: rgb(17, 17, 17); font-family: Consolas, &amp;quot;Courier New&amp;quot;, monospace; font-size: 14px; line-height: 19px; white-space: pre;&quot;&gt;&lt;span style=&quot;color: #da55ff;&quot;&gt;LotItem&amp;lt;&lt;/span&gt;&lt;span style=&quot;color: rgb(218, 85, 255);&quot;&gt;IBaseItem&lt;/span&gt;&lt;span style=&quot;color: rgb(218, 85, 255);&quot;&gt;&amp;gt;&lt;/span&gt;&lt;/div&gt;" style="swimlane;fontStyle=0;childLayout=stackLayout;horizontal=1;startSize=26;fillColor=none;horizontalStack=0;resizeParent=1;resizeParentMax=0;resizeLast=0;collapsible=1;marginBottom=0;whiteSpace=wrap;html=1;" vertex="1" parent="WIyWlLk6GJQsqaUBKTNV-1">
          <mxGeometry x="-810" y="320" width="290" height="170" as="geometry" />
        </mxCell>
        <mxCell id="l2nz5t12sQx5QNXhWNsF-13" value="&lt;br&gt;&lt;div style=&quot;color: #ffffff;background-color: #111111;font-family: Consolas, &#39;Courier New&#39;, monospace;font-weight: normal;font-size: 14px;line-height: 19px;white-space: pre;&quot;&gt;&lt;div&gt;&lt;span style=&quot;color: #1eabff;&quot;&gt;id&lt;/span&gt;&lt;span style=&quot;color: #ffffff;&quot;&gt;: &lt;/span&gt;&lt;span style=&quot;color: #da55ff;&quot;&gt;string&lt;/span&gt;&lt;span style=&quot;color: #ffffff;&quot;&gt;;&lt;/span&gt;&lt;/div&gt;&lt;div&gt;&lt;span style=&quot;color: #1eabff;&quot;&gt;description&lt;/span&gt;&lt;span style=&quot;color: #ffcf13;&quot;&gt;?&lt;/span&gt;&lt;span style=&quot;color: #ffffff;&quot;&gt;: &lt;/span&gt;&lt;span style=&quot;color: #da55ff;&quot;&gt;string&lt;/span&gt;&lt;span style=&quot;color: #ffffff;&quot;&gt;;&lt;/span&gt;&lt;/div&gt;&lt;div&gt;&lt;span style=&quot;color: #1eabff;&quot;&gt;image&lt;/span&gt;&lt;span style=&quot;color: #ffffff;&quot;&gt;: &lt;/span&gt;&lt;span style=&quot;color: #da55ff;&quot;&gt;string&lt;/span&gt;&lt;span style=&quot;color: #ffffff;&quot;&gt;;&lt;/span&gt;&lt;/div&gt;&lt;div&gt;&lt;span style=&quot;color: #1eabff;&quot;&gt;name&lt;/span&gt;&lt;span style=&quot;color: #ffffff;&quot;&gt;: &lt;/span&gt;&lt;span style=&quot;color: #da55ff;&quot;&gt;string&lt;/span&gt;&lt;span style=&quot;color: #ffffff;&quot;&gt;;&lt;/span&gt;&lt;/div&gt;&lt;div&gt;&lt;span style=&quot;color: #1eabff;&quot;&gt;category&lt;/span&gt;&lt;span style=&quot;color: #ffffff;&quot;&gt;: &lt;/span&gt;&lt;span style=&quot;color: #da55ff;&quot;&gt;string&lt;/span&gt;&lt;span style=&quot;color: #ffffff;&quot;&gt;;&lt;/span&gt;&lt;/div&gt;&lt;div&gt;&lt;span style=&quot;color: #1eabff;&quot;&gt;price&lt;/span&gt;&lt;span style=&quot;color: #ffffff;&quot;&gt;: &lt;/span&gt;&lt;span style=&quot;color: #da55ff;&quot;&gt;number&lt;/span&gt;&lt;span style=&quot;color: #ffffff;&quot;&gt; | &lt;/span&gt;&lt;span style=&quot;color: #da55ff;&quot;&gt;null&lt;/span&gt;&lt;span style=&quot;color: #ffffff;&quot;&gt;;&lt;/span&gt;&lt;/div&gt;&lt;div&gt;&lt;br&gt;&lt;/div&gt;&lt;/div&gt;&lt;div&gt;&lt;br&gt;&lt;/div&gt;" style="text;strokeColor=none;fillColor=none;align=left;verticalAlign=top;spacingLeft=4;spacingRight=4;overflow=hidden;rotatable=0;points=[[0,0.5],[1,0.5]];portConstraint=eastwest;whiteSpace=wrap;html=1;" vertex="1" parent="l2nz5t12sQx5QNXhWNsF-12">
          <mxGeometry y="26" width="290" height="144" as="geometry" />
        </mxCell>
        <mxCell id="l2nz5t12sQx5QNXhWNsF-16" value="AppData&amp;lt;&lt;span style=&quot;color: rgb(218, 85, 255); background-color: rgb(17, 17, 17); font-family: Consolas, &amp;quot;Courier New&amp;quot;, monospace; font-size: 14px; font-weight: normal; white-space: pre;&quot;&gt;AppState&lt;/span&gt;&lt;span style=&quot;background-color: initial;&quot;&gt;&amp;gt;&lt;/span&gt;" style="swimlane;fontStyle=1;align=center;verticalAlign=top;childLayout=stackLayout;horizontal=1;startSize=26;horizontalStack=0;resizeParent=1;resizeParentMax=0;resizeLast=0;collapsible=1;marginBottom=0;whiteSpace=wrap;html=1;" vertex="1" parent="WIyWlLk6GJQsqaUBKTNV-1">
          <mxGeometry x="-320" y="320" width="320" height="490" as="geometry" />
        </mxCell>
        <mxCell id="l2nz5t12sQx5QNXhWNsF-17" value="&lt;br&gt;&lt;div style=&quot;color: #ffffff;background-color: #111111;font-family: Consolas, &#39;Courier New&#39;, monospace;font-weight: normal;font-size: 14px;line-height: 19px;white-space: pre;&quot;&gt;&lt;div&gt;&lt;span style=&quot;color: #1eabff;&quot;&gt;catalog&lt;/span&gt;&lt;span style=&quot;color: #ffffff;&quot;&gt;: &lt;/span&gt;&lt;span style=&quot;color: #da55ff;&quot;&gt;ICard&lt;/span&gt;&lt;span style=&quot;color: #ffffff;&quot;&gt;[];&lt;/span&gt;&lt;/div&gt;&lt;div&gt;&lt;span style=&quot;color: #1eabff;&quot;&gt;basket&lt;/span&gt;&lt;span style=&quot;color: #ffffff;&quot;&gt;: &lt;/span&gt;&lt;span style=&quot;color: #da55ff;&quot;&gt;ChooseItem&lt;/span&gt;&lt;span style=&quot;color: #ffffff;&quot;&gt;[];&lt;/span&gt;&lt;/div&gt;&lt;div&gt;&lt;span style=&quot;color: #1eabff;&quot;&gt;preview&lt;/span&gt;&lt;span style=&quot;color: #ffffff;&quot;&gt;: &lt;/span&gt;&lt;span style=&quot;color: #da55ff;&quot;&gt;string&lt;/span&gt;&lt;span style=&quot;color: #ffffff;&quot;&gt; | &lt;/span&gt;&lt;span style=&quot;color: #da55ff;&quot;&gt;null&lt;/span&gt;&lt;span style=&quot;color: #ffffff;&quot;&gt;;&lt;/span&gt;&lt;/div&gt;&lt;div&gt;&lt;span style=&quot;color: #1eabff;&quot;&gt;order&lt;/span&gt;&lt;span style=&quot;color: #ffffff;&quot;&gt;: &lt;/span&gt;&lt;span style=&quot;color: #da55ff;&quot;&gt;IOrder&lt;/span&gt;&lt;span style=&quot;color: #ffffff;&quot;&gt; | &lt;/span&gt;&lt;span style=&quot;color: #da55ff;&quot;&gt;null&lt;/span&gt;&lt;span style=&quot;color: #ffffff;&quot;&gt;;&lt;/span&gt;&lt;/div&gt;&lt;div&gt;&lt;span style=&quot;color: #1eabff;&quot;&gt;formErrors&lt;/span&gt;&lt;span style=&quot;color: #ffffff;&quot;&gt;: &lt;/span&gt;&lt;span style=&quot;color: #da55ff;&quot;&gt;FormErrors&lt;/span&gt;&lt;span style=&quot;color: #ffffff;&quot;&gt;;&lt;/span&gt;&lt;/div&gt;&lt;/div&gt;&lt;div&gt;&lt;br/&gt;&lt;/div&gt;" style="text;strokeColor=none;fillColor=none;align=left;verticalAlign=top;spacingLeft=4;spacingRight=4;overflow=hidden;rotatable=0;points=[[0,0.5],[1,0.5]];portConstraint=eastwest;whiteSpace=wrap;html=1;" vertex="1" parent="l2nz5t12sQx5QNXhWNsF-16">
          <mxGeometry y="26" width="320" height="124" as="geometry" />
        </mxCell>
        <mxCell id="l2nz5t12sQx5QNXhWNsF-18" value="" style="line;strokeWidth=1;fillColor=none;align=left;verticalAlign=middle;spacingTop=-1;spacingLeft=3;spacingRight=3;rotatable=0;labelPosition=right;points=[];portConstraint=eastwest;strokeColor=inherit;" vertex="1" parent="l2nz5t12sQx5QNXhWNsF-16">
          <mxGeometry y="150" width="320" height="8" as="geometry" />
        </mxCell>
        <mxCell id="l2nz5t12sQx5QNXhWNsF-19" value="&lt;div style=&quot;color: rgb(255, 255, 255); background-color: rgb(17, 17, 17); font-family: Consolas, &amp;quot;Courier New&amp;quot;, monospace; font-size: 14px; line-height: 19px; white-space: pre;&quot;&gt;&lt;div&gt;&lt;span style=&quot;color: #ff6000;&quot;&gt;setCatalog&lt;/span&gt;(&lt;span style=&quot;color: #1eabff;font-style: italic;&quot;&gt;items&lt;/span&gt;: &lt;span style=&quot;color: #da55ff;&quot;&gt;ICard&lt;/span&gt;[]):&lt;span style=&quot;color: #da55ff;&quot;&gt;void&lt;/span&gt;;&lt;/div&gt;&lt;div&gt;&lt;span style=&quot;color: #ff6000;&quot;&gt;setPreview&lt;/span&gt;(&lt;span style=&quot;color: #1eabff;font-style: italic;&quot;&gt;item&lt;/span&gt;: &lt;span style=&quot;color: #da55ff;&quot;&gt;IBaseItem&lt;/span&gt;): &lt;span style=&quot;color: #da55ff;&quot;&gt;void&lt;/span&gt;;&lt;/div&gt;&lt;div&gt;&lt;span style=&quot;color: #ff6000;&quot;&gt;buyItem&lt;/span&gt;(&lt;span style=&quot;color: #1eabff;font-style: italic;&quot;&gt;item&lt;/span&gt;: &lt;span style=&quot;color: #da55ff;&quot;&gt;IBaseItem&lt;/span&gt;): &lt;span style=&quot;color: #da55ff;&quot;&gt;void&lt;/span&gt;;&lt;/div&gt;&lt;div&gt;&lt;span style=&quot;color: #ff6000;&quot;&gt;deleteItem&lt;/span&gt;(&lt;span style=&quot;color: #1eabff;font-style: italic;&quot;&gt;id&lt;/span&gt;:&lt;span style=&quot;color: #da55ff;&quot;&gt;string&lt;/span&gt;):&lt;span style=&quot;color: #da55ff;&quot;&gt;void&lt;/span&gt;;&lt;/div&gt;&lt;div&gt;&lt;span style=&quot;color: #ff6000;&quot;&gt;checkChoose&lt;/span&gt;(&lt;span style=&quot;color: #1eabff;font-style: italic;&quot;&gt;id&lt;/span&gt;: &lt;span style=&quot;color: #da55ff;&quot;&gt;string&lt;/span&gt;): &lt;span style=&quot;color: #da55ff;&quot;&gt;boolean&lt;/span&gt;;&lt;/div&gt;&lt;div&gt;&lt;span style=&quot;color: #ff6000;&quot;&gt;getBusket&lt;/span&gt;():&lt;span style=&quot;color: #da55ff;&quot;&gt;HTMLElement&lt;/span&gt;;&lt;/div&gt;&lt;div&gt;&lt;span style=&quot;color: #ff6000;&quot;&gt;clearBasket&lt;/span&gt;():&lt;span style=&quot;color: #da55ff;&quot;&gt;void&lt;/span&gt;;&lt;/div&gt;&lt;div&gt;&lt;span style=&quot;color: #ff6000;&quot;&gt;getResult&lt;/span&gt;(): &lt;span style=&quot;color: #da55ff;&quot;&gt;Cost&lt;/span&gt;;&lt;/div&gt;&lt;div&gt;&lt;span style=&quot;color: #ff6000;&quot;&gt;setOrder&lt;/span&gt;(): &lt;span style=&quot;color: #da55ff;&quot;&gt;IOrder&lt;/span&gt;;&lt;/div&gt;&lt;div&gt;&lt;span style=&quot;color: #ff6000;&quot;&gt;choosePay&lt;/span&gt;(&lt;span style=&quot;color: #1eabff;font-style: italic;&quot;&gt;value&lt;/span&gt;:&lt;span style=&quot;color: #da55ff;&quot;&gt;Text&lt;/span&gt;): &lt;span style=&quot;color: #da55ff;&quot;&gt;void&lt;/span&gt;;&lt;/div&gt;&lt;div&gt;&lt;span style=&quot;color: #ff6000;&quot;&gt;setAdress&lt;/span&gt;(&lt;span style=&quot;color: #1eabff;font-style: italic;&quot;&gt;value&lt;/span&gt;: &lt;span style=&quot;color: #da55ff;&quot;&gt;Text&lt;/span&gt;): &lt;span style=&quot;color: #da55ff;&quot;&gt;void&lt;/span&gt;;&lt;/div&gt;&lt;div&gt;&lt;span style=&quot;color: #ff6000;&quot;&gt;setContact&lt;/span&gt;(&lt;span style=&quot;color: #1eabff;font-style: italic;&quot;&gt;field&lt;/span&gt;: &lt;span style=&quot;color: #ffcf13;&quot;&gt;keyof&lt;/span&gt; &lt;span style=&quot;color: #da55ff;&quot;&gt;Pick&lt;/span&gt;&amp;lt;&lt;span style=&quot;color: #da55ff;&quot;&gt;IOrder&lt;/span&gt;, &lt;span style=&quot;color: #dedede;&quot;&gt;&#39;email&#39;&lt;/span&gt; | &lt;span style=&quot;color: #dedede;&quot;&gt;&#39;phone&#39;&lt;/span&gt;&amp;gt;, &lt;span style=&quot;color: #1eabff;font-style: italic;&quot;&gt;value&lt;/span&gt;: &lt;span style=&quot;color: #da55ff;&quot;&gt;string&lt;/span&gt;): &lt;span style=&quot;color: #da55ff;&quot;&gt;void&lt;/span&gt;&lt;/div&gt;&lt;div&gt;&lt;span style=&quot;color: #ff6000;&quot;&gt;clearOrder&lt;/span&gt;(): &lt;span style=&quot;color: #da55ff;&quot;&gt;void&lt;/span&gt;;&lt;/div&gt;&lt;div&gt;&lt;span style=&quot;color: #ff6000;&quot;&gt;checkDelyveryReady&lt;/span&gt;(): &lt;span style=&quot;color: #da55ff;&quot;&gt;void&lt;/span&gt;;&lt;/div&gt;&lt;div&gt;&lt;span style=&quot;color: #ff6000;&quot;&gt;checkOrderReady&lt;/span&gt;(): &lt;span style=&quot;color: #da55ff;&quot;&gt;void&lt;/span&gt;;&lt;/div&gt;&lt;div&gt;&lt;span style=&quot;color: #ff6000;&quot;&gt;validataDelyvery&lt;/span&gt;(): &lt;span style=&quot;color: #da55ff;&quot;&gt;void&lt;/span&gt;;&lt;/div&gt;&lt;div&gt;&lt;span style=&quot;color: #ff6000;&quot;&gt;validateContact&lt;/span&gt;(): &lt;span style=&quot;color: #da55ff;&quot;&gt;void&lt;/span&gt;;&lt;/div&gt;&lt;/div&gt;" style="text;strokeColor=none;fillColor=none;align=left;verticalAlign=top;spacingLeft=4;spacingRight=4;overflow=hidden;rotatable=0;points=[[0,0.5],[1,0.5]];portConstraint=eastwest;whiteSpace=wrap;html=1;" vertex="1" parent="l2nz5t12sQx5QNXhWNsF-16">
          <mxGeometry y="158" width="320" height="332" as="geometry" />
        </mxCell>
        <mxCell id="l2nz5t12sQx5QNXhWNsF-20" value="" style="endArrow=none;html=1;rounded=0;" edge="1" parent="WIyWlLk6GJQsqaUBKTNV-1">
          <mxGeometry width="50" height="50" relative="1" as="geometry">
            <mxPoint x="-228" y="120" as="sourcePoint" />
            <mxPoint x="-150" y="120" as="targetPoint" />
          </mxGeometry>
        </mxCell>
        <mxCell id="l2nz5t12sQx5QNXhWNsF-21" value="" style="endArrow=classic;html=1;rounded=0;entryX=0.538;entryY=-0.023;entryDx=0;entryDy=0;entryPerimeter=0;" edge="1" parent="WIyWlLk6GJQsqaUBKTNV-1" target="l2nz5t12sQx5QNXhWNsF-16">
          <mxGeometry width="50" height="50" relative="1" as="geometry">
            <mxPoint x="-150" y="120" as="sourcePoint" />
            <mxPoint x="-100" y="70" as="targetPoint" />
          </mxGeometry>
        </mxCell>
        <mxCell id="l2nz5t12sQx5QNXhWNsF-32" value="api" style="swimlane;fontStyle=1;align=center;verticalAlign=top;childLayout=stackLayout;horizontal=1;startSize=26;horizontalStack=0;resizeParent=1;resizeParentMax=0;resizeLast=0;collapsible=1;marginBottom=0;whiteSpace=wrap;html=1;" vertex="1" parent="WIyWlLk6GJQsqaUBKTNV-1">
          <mxGeometry x="270" width="390" height="170" as="geometry" />
        </mxCell>
        <mxCell id="l2nz5t12sQx5QNXhWNsF-33" value="&lt;br&gt;&lt;div style=&quot;background-color: rgb(17, 17, 17); font-family: Consolas, &amp;quot;Courier New&amp;quot;, monospace; font-weight: normal; font-size: 14px; line-height: 19px; white-space: pre;&quot;&gt;&lt;div style=&quot;color: rgb(255, 255, 255);&quot;&gt;&lt;span style=&quot;color: #ffcf13;&quot;&gt;readonly&lt;/span&gt;&lt;span style=&quot;color: #ffffff;&quot;&gt; &lt;/span&gt;&lt;span style=&quot;color: #da55ff;&quot;&gt;baseUrl&lt;/span&gt;&lt;span style=&quot;color: #ffffff;&quot;&gt;: &lt;/span&gt;&lt;span style=&quot;color: #da55ff;&quot;&gt;string&lt;/span&gt;&lt;span style=&quot;color: #ffffff;&quot;&gt;;&lt;/span&gt;&lt;/div&gt;&lt;div style=&quot;&quot;&gt;&lt;font color=&quot;#ffffff&quot;&gt;# &lt;/font&gt;&lt;span style=&quot;color: rgb(30, 171, 255);&quot;&gt;options&lt;/span&gt;&lt;span style=&quot;color: rgb(255, 255, 255);&quot;&gt;: &lt;/span&gt;&lt;span style=&quot;color: rgb(218, 85, 255);&quot;&gt;RequestInit&lt;/span&gt;&lt;span style=&quot;color: rgb(255, 255, 255);&quot;&gt;;&lt;/span&gt;&lt;/div&gt;&lt;font color=&quot;#ffffff&quot;&gt;&lt;br&gt;&lt;/font&gt;&lt;/div&gt;&lt;div&gt;&lt;br/&gt;&lt;/div&gt;" style="text;strokeColor=none;fillColor=none;align=left;verticalAlign=top;spacingLeft=4;spacingRight=4;overflow=hidden;rotatable=0;points=[[0,0.5],[1,0.5]];portConstraint=eastwest;whiteSpace=wrap;html=1;" vertex="1" parent="l2nz5t12sQx5QNXhWNsF-32">
          <mxGeometry y="26" width="390" height="74" as="geometry" />
        </mxCell>
        <mxCell id="l2nz5t12sQx5QNXhWNsF-34" value="" style="line;strokeWidth=1;fillColor=none;align=left;verticalAlign=middle;spacingTop=-1;spacingLeft=3;spacingRight=3;rotatable=0;labelPosition=right;points=[];portConstraint=eastwest;strokeColor=inherit;" vertex="1" parent="l2nz5t12sQx5QNXhWNsF-32">
          <mxGeometry y="100" width="390" height="8" as="geometry" />
        </mxCell>
        <mxCell id="l2nz5t12sQx5QNXhWNsF-35" value="&lt;div style=&quot;color: rgb(255, 255, 255); background-color: rgb(17, 17, 17); font-family: Consolas, &amp;quot;Courier New&amp;quot;, monospace; font-size: 14px; line-height: 19px; white-space: pre;&quot;&gt;&lt;span style=&quot;color: #ff6000;&quot;&gt;get&lt;/span&gt;(&lt;span style=&quot;color: #1eabff;font-style: italic;&quot;&gt;uri&lt;/span&gt;: &lt;span style=&quot;color: #da55ff;&quot;&gt;string&lt;/span&gt;)&lt;/div&gt;&lt;div style=&quot;color: rgb(255, 255, 255); background-color: rgb(17, 17, 17); font-family: Consolas, &amp;quot;Courier New&amp;quot;, monospace; font-size: 14px; line-height: 19px; white-space: pre;&quot;&gt;&lt;div style=&quot;line-height: 19px;&quot;&gt;&lt;span style=&quot;color: #ff6000;&quot;&gt;post&lt;/span&gt;(&lt;span style=&quot;color: #1eabff;font-style: italic;&quot;&gt;uri&lt;/span&gt;: &lt;span style=&quot;color: #da55ff;&quot;&gt;string&lt;/span&gt;, &lt;span style=&quot;color: #1eabff;font-style: italic;&quot;&gt;data&lt;/span&gt;: &lt;span style=&quot;color: #da55ff;&quot;&gt;object&lt;/span&gt;, &lt;span style=&quot;color: #1eabff;font-style: italic;&quot;&gt;method)&lt;/span&gt;&lt;/div&gt;&lt;/div&gt;&lt;div style=&quot;color: rgb(255, 255, 255); background-color: rgb(17, 17, 17); font-family: Consolas, &amp;quot;Courier New&amp;quot;, monospace; font-size: 14px; line-height: 19px; white-space: pre;&quot;&gt;&lt;br&gt;&lt;/div&gt;" style="text;strokeColor=none;fillColor=none;align=left;verticalAlign=top;spacingLeft=4;spacingRight=4;overflow=hidden;rotatable=0;points=[[0,0.5],[1,0.5]];portConstraint=eastwest;whiteSpace=wrap;html=1;" vertex="1" parent="l2nz5t12sQx5QNXhWNsF-32">
          <mxGeometry y="108" width="390" height="62" as="geometry" />
        </mxCell>
        <mxCell id="l2nz5t12sQx5QNXhWNsF-36" value="" style="endArrow=classic;html=1;rounded=0;exitX=0.533;exitY=1.065;exitDx=0;exitDy=0;exitPerimeter=0;entryX=0.533;entryY=-0.022;entryDx=0;entryDy=0;entryPerimeter=0;" edge="1" parent="WIyWlLk6GJQsqaUBKTNV-1" source="l2nz5t12sQx5QNXhWNsF-35" target="l2nz5t12sQx5QNXhWNsF-37">
          <mxGeometry width="50" height="50" relative="1" as="geometry">
            <mxPoint x="550" y="450" as="sourcePoint" />
            <mxPoint x="480" y="320" as="targetPoint" />
          </mxGeometry>
        </mxCell>
        <mxCell id="l2nz5t12sQx5QNXhWNsF-37" value="&lt;div style=&quot;color: #ffffff;background-color: #111111;font-family: Consolas, &#39;Courier New&#39;, monospace;font-weight: normal;font-size: 14px;line-height: 19px;white-space: pre;&quot;&gt;&lt;span style=&quot;color: #da55ff;&quot;&gt;APILarek impliments IApi&lt;/span&gt;&lt;/div&gt;" style="swimlane;fontStyle=1;align=center;verticalAlign=top;childLayout=stackLayout;horizontal=1;startSize=26;horizontalStack=0;resizeParent=1;resizeParentMax=0;resizeLast=0;collapsible=1;marginBottom=0;whiteSpace=wrap;html=1;" vertex="1" parent="WIyWlLk6GJQsqaUBKTNV-1">
          <mxGeometry x="270" y="280" width="390" height="118" as="geometry" />
        </mxCell>
        <mxCell id="l2nz5t12sQx5QNXhWNsF-38" value="&lt;div style=&quot;color: rgb(255, 255, 255); background-color: rgb(17, 17, 17); font-family: Consolas, &amp;quot;Courier New&amp;quot;, monospace; font-size: 14px; line-height: 19px; white-space: pre;&quot;&gt;&lt;span style=&quot;color: #ff6000;&quot;&gt;getItem&lt;/span&gt;(&lt;span style=&quot;color: #1eabff;font-style: italic;&quot;&gt;id&lt;/span&gt;: &lt;span style=&quot;color: #da55ff;&quot;&gt;string&lt;/span&gt;): &lt;span style=&quot;color: #da55ff;&quot;&gt;Promise&lt;/span&gt;&amp;lt;&lt;span style=&quot;color: #da55ff;&quot;&gt;IBaseItem&lt;/span&gt;&amp;gt;&lt;/div&gt;&lt;div style=&quot;color: rgb(255, 255, 255); background-color: rgb(17, 17, 17); font-family: Consolas, &amp;quot;Courier New&amp;quot;, monospace; font-size: 14px; line-height: 19px; white-space: pre;&quot;&gt;&lt;div style=&quot;line-height: 19px;&quot;&gt;&lt;span style=&quot;color: #ff6000;&quot;&gt;getLots&lt;/span&gt;(): &lt;span style=&quot;color: #da55ff;&quot;&gt;Promise&lt;/span&gt;&amp;lt;&lt;span style=&quot;color: #da55ff;&quot;&gt;IBaseItem&lt;/span&gt;[]&amp;gt;&lt;/div&gt;&lt;div style=&quot;line-height: 19px;&quot;&gt;&lt;div style=&quot;line-height: 19px;&quot;&gt;&lt;span style=&quot;color: #ff6000;&quot;&gt;takeOrder&lt;/span&gt;(&lt;span style=&quot;color: #1eabff;font-style: italic;&quot;&gt;order&lt;/span&gt;: &lt;span style=&quot;color: #da55ff;&quot;&gt;IOrder&lt;/span&gt;) : &lt;span style=&quot;color: #da55ff;&quot;&gt;Promise&lt;/span&gt;&amp;lt;&lt;span style=&quot;color: #da55ff;&quot;&gt;IOrderResult&lt;/span&gt;&amp;gt;&lt;/div&gt;&lt;/div&gt;&lt;/div&gt;&lt;div style=&quot;color: rgb(255, 255, 255); background-color: rgb(17, 17, 17); font-family: Consolas, &amp;quot;Courier New&amp;quot;, monospace; font-size: 14px; line-height: 19px; white-space: pre;&quot;&gt;&lt;br&gt;&lt;/div&gt;" style="text;strokeColor=none;fillColor=none;align=left;verticalAlign=top;spacingLeft=4;spacingRight=4;overflow=hidden;rotatable=0;points=[[0,0.5],[1,0.5]];portConstraint=eastwest;whiteSpace=wrap;html=1;" vertex="1" parent="l2nz5t12sQx5QNXhWNsF-37">
          <mxGeometry y="26" width="390" height="84" as="geometry" />
        </mxCell>
        <mxCell id="l2nz5t12sQx5QNXhWNsF-39" value="" style="line;strokeWidth=1;fillColor=none;align=left;verticalAlign=middle;spacingTop=-1;spacingLeft=3;spacingRight=3;rotatable=0;labelPosition=right;points=[];portConstraint=eastwest;strokeColor=inherit;" vertex="1" parent="l2nz5t12sQx5QNXhWNsF-37">
          <mxGeometry y="110" width="390" height="8" as="geometry" />
        </mxCell>
        <mxCell id="l2nz5t12sQx5QNXhWNsF-41" value="&lt;div style=&quot;color: #ffffff;background-color: #111111;font-family: Consolas, &#39;Courier New&#39;, monospace;font-weight: normal;font-size: 14px;line-height: 19px;white-space: pre;&quot;&gt; &lt;span style=&quot;color: #da55ff;&quot;&gt;View&lt;/span&gt;&amp;lt;&lt;span style=&quot;color: #da55ff;&quot;&gt;T&lt;/span&gt;&amp;gt;&lt;/div&gt;" style="swimlane;fontStyle=1;align=center;verticalAlign=top;childLayout=stackLayout;horizontal=1;startSize=26;horizontalStack=0;resizeParent=1;resizeParentMax=0;resizeLast=0;collapsible=1;marginBottom=0;whiteSpace=wrap;html=1;" vertex="1" parent="WIyWlLk6GJQsqaUBKTNV-1">
          <mxGeometry x="1080" width="560" height="220" as="geometry" />
        </mxCell>
        <mxCell id="l2nz5t12sQx5QNXhWNsF-43" value="" style="line;strokeWidth=1;fillColor=none;align=left;verticalAlign=middle;spacingTop=-1;spacingLeft=3;spacingRight=3;rotatable=0;labelPosition=right;points=[];portConstraint=eastwest;strokeColor=inherit;" vertex="1" parent="l2nz5t12sQx5QNXhWNsF-41">
          <mxGeometry y="26" width="560" height="74" as="geometry" />
        </mxCell>
        <mxCell id="l2nz5t12sQx5QNXhWNsF-44" value="&lt;br&gt;&lt;div style=&quot;color: #ffffff;background-color: #111111;font-family: Consolas, &#39;Courier New&#39;, monospace;font-weight: normal;font-size: 14px;line-height: 19px;white-space: pre;&quot;&gt;&lt;div&gt;&lt;span style=&quot;color: #ffffff;&quot;&gt;&amp;nbsp;&lt;/span&gt;&lt;span style=&quot;color: #ff6000;&quot;&gt;toggleClass&lt;/span&gt;&lt;span style=&quot;color: #ffffff;&quot;&gt;(&lt;/span&gt;&lt;span style=&quot;color: #1eabff;font-style: italic;&quot;&gt;element&lt;/span&gt;&lt;span style=&quot;color: #ffffff;&quot;&gt;: &lt;/span&gt;&lt;span style=&quot;color: #da55ff;&quot;&gt;HTMLElement&lt;/span&gt;&lt;span style=&quot;color: #ffffff;&quot;&gt;, &lt;/span&gt;&lt;span style=&quot;color: #1eabff;font-style: italic;&quot;&gt;className&lt;/span&gt;&lt;span style=&quot;color: #ffffff;&quot;&gt;: &lt;/span&gt;&lt;span style=&quot;color: #da55ff;&quot;&gt;string&lt;/span&gt;&lt;span style=&quot;color: #ffffff;&quot;&gt;, &lt;/span&gt;&lt;span style=&quot;color: #1eabff;font-style: italic;&quot;&gt;force&lt;/span&gt;&lt;span style=&quot;color: #ffcf13;&quot;&gt;?&lt;/span&gt;&lt;span style=&quot;color: #ffffff;&quot;&gt;: &lt;/span&gt;&lt;span style=&quot;color: #da55ff;&quot;&gt;boolean&lt;/span&gt;&lt;span style=&quot;color: #ffffff;&quot;&gt;)&lt;/span&gt;&lt;/div&gt;&lt;/div&gt;&lt;div style=&quot;color: rgb(255, 255, 255); background-color: rgb(17, 17, 17); font-family: Consolas, &amp;quot;Courier New&amp;quot;, monospace; font-size: 14px; line-height: 19px; white-space: pre;&quot;&gt;&lt;span style=&quot;color: #ff6000;&quot;&gt;setDisabled&lt;/span&gt;(&lt;span style=&quot;color: #1eabff;font-style: italic;&quot;&gt;element&lt;/span&gt;: &lt;span style=&quot;color: #da55ff;&quot;&gt;HTMLElement&lt;/span&gt;, &lt;span style=&quot;color: #1eabff;font-style: italic;&quot;&gt;state&lt;/span&gt;: &lt;span style=&quot;color: #da55ff;&quot;&gt;boolean&lt;/span&gt;)&lt;/div&gt;&lt;div style=&quot;color: rgb(255, 255, 255); background-color: rgb(17, 17, 17); font-family: Consolas, &amp;quot;Courier New&amp;quot;, monospace; font-size: 14px; line-height: 19px; white-space: pre;&quot;&gt;&lt;div style=&quot;line-height: 19px;&quot;&gt;&lt;span style=&quot;color: #ff6000;&quot;&gt;render&lt;/span&gt;(&lt;span style=&quot;color: #1eabff;font-style: italic;&quot;&gt;data&lt;/span&gt;&lt;span style=&quot;color: #ffcf13;&quot;&gt;?&lt;/span&gt;: &lt;span style=&quot;color: #da55ff;&quot;&gt;Partial&lt;/span&gt;&amp;lt;&lt;span style=&quot;color: #da55ff;&quot;&gt;T&lt;/span&gt;&amp;gt;)&lt;/div&gt;&lt;/div&gt;&lt;br&gt;&lt;div&gt;&lt;br&gt;&lt;/div&gt;" style="text;strokeColor=none;fillColor=none;align=left;verticalAlign=top;spacingLeft=4;spacingRight=4;overflow=hidden;rotatable=0;points=[[0,0.5],[1,0.5]];portConstraint=eastwest;whiteSpace=wrap;html=1;" vertex="1" parent="l2nz5t12sQx5QNXhWNsF-41">
          <mxGeometry y="100" width="560" height="120" as="geometry" />
        </mxCell>
        <mxCell id="l2nz5t12sQx5QNXhWNsF-49" value="&lt;span style=&quot;font-weight: 700;&quot;&gt;Page&amp;lt;IPage&amp;gt;&lt;/span&gt;" style="swimlane;fontStyle=0;childLayout=stackLayout;horizontal=1;startSize=26;fillColor=none;horizontalStack=0;resizeParent=1;resizeParentMax=0;resizeLast=0;collapsible=1;marginBottom=0;whiteSpace=wrap;html=1;" vertex="1" parent="WIyWlLk6GJQsqaUBKTNV-1">
          <mxGeometry x="827" y="270" width="203" height="160" as="geometry" />
        </mxCell>
        <mxCell id="l2nz5t12sQx5QNXhWNsF-50" value="itemCounter: HTMLElement;" style="text;strokeColor=none;fillColor=none;align=left;verticalAlign=top;spacingLeft=4;spacingRight=4;overflow=hidden;rotatable=0;points=[[0,0.5],[1,0.5]];portConstraint=eastwest;whiteSpace=wrap;html=1;" vertex="1" parent="l2nz5t12sQx5QNXhWNsF-49">
          <mxGeometry y="26" width="203" height="26" as="geometry" />
        </mxCell>
        <mxCell id="l2nz5t12sQx5QNXhWNsF-51" value="catalog: HTMLElement" style="text;strokeColor=none;fillColor=none;align=left;verticalAlign=top;spacingLeft=4;spacingRight=4;overflow=hidden;rotatable=0;points=[[0,0.5],[1,0.5]];portConstraint=eastwest;whiteSpace=wrap;html=1;" vertex="1" parent="l2nz5t12sQx5QNXhWNsF-49">
          <mxGeometry y="52" width="203" height="26" as="geometry" />
        </mxCell>
        <mxCell id="l2nz5t12sQx5QNXhWNsF-52" value="wrapper: HTMLElement&lt;div&gt;basket: HTMLElement&lt;br&gt;&lt;/div&gt;" style="text;strokeColor=none;fillColor=none;align=left;verticalAlign=top;spacingLeft=4;spacingRight=4;overflow=hidden;rotatable=0;points=[[0,0.5],[1,0.5]];portConstraint=eastwest;whiteSpace=wrap;html=1;" vertex="1" parent="l2nz5t12sQx5QNXhWNsF-49">
          <mxGeometry y="78" width="203" height="82" as="geometry" />
        </mxCell>
        <mxCell id="l2nz5t12sQx5QNXhWNsF-55" value="" style="edgeStyle=elbowEdgeStyle;elbow=vertical;endArrow=classic;html=1;curved=0;rounded=0;endSize=8;startSize=8;entryX=0.5;entryY=0;entryDx=0;entryDy=0;" edge="1" parent="WIyWlLk6GJQsqaUBKTNV-1" target="l2nz5t12sQx5QNXhWNsF-49">
          <mxGeometry width="50" height="50" relative="1" as="geometry">
            <mxPoint x="1080" y="70" as="sourcePoint" />
            <mxPoint x="1020" y="85" as="targetPoint" />
            <Array as="points">
              <mxPoint x="1010" y="110" />
            </Array>
          </mxGeometry>
        </mxCell>
        <mxCell id="l2nz5t12sQx5QNXhWNsF-56" value="Form&amp;lt;T&amp;gt;" style="swimlane;fontStyle=1;align=center;verticalAlign=top;childLayout=stackLayout;horizontal=1;startSize=26;horizontalStack=0;resizeParent=1;resizeParentMax=0;resizeLast=0;collapsible=1;marginBottom=0;whiteSpace=wrap;html=1;" vertex="1" parent="WIyWlLk6GJQsqaUBKTNV-1">
          <mxGeometry x="1880" y="140" width="250" height="154" as="geometry" />
        </mxCell>
        <mxCell id="l2nz5t12sQx5QNXhWNsF-57" value="# submit: HTMLButtonElement&lt;div&gt;# errors: HTMLElement;&lt;br&gt;&lt;/div&gt;" style="text;strokeColor=none;fillColor=none;align=left;verticalAlign=top;spacingLeft=4;spacingRight=4;overflow=hidden;rotatable=0;points=[[0,0.5],[1,0.5]];portConstraint=eastwest;whiteSpace=wrap;html=1;" vertex="1" parent="l2nz5t12sQx5QNXhWNsF-56">
          <mxGeometry y="26" width="250" height="94" as="geometry" />
        </mxCell>
        <mxCell id="l2nz5t12sQx5QNXhWNsF-58" value="" style="line;strokeWidth=1;fillColor=none;align=left;verticalAlign=middle;spacingTop=-1;spacingLeft=3;spacingRight=3;rotatable=0;labelPosition=right;points=[];portConstraint=eastwest;strokeColor=inherit;" vertex="1" parent="l2nz5t12sQx5QNXhWNsF-56">
          <mxGeometry y="120" width="250" height="8" as="geometry" />
        </mxCell>
        <mxCell id="l2nz5t12sQx5QNXhWNsF-59" value="render(state: Partial &amp;lt;T&amp;gt;&amp;amp; IFormState)" style="text;strokeColor=none;fillColor=none;align=left;verticalAlign=top;spacingLeft=4;spacingRight=4;overflow=hidden;rotatable=0;points=[[0,0.5],[1,0.5]];portConstraint=eastwest;whiteSpace=wrap;html=1;" vertex="1" parent="l2nz5t12sQx5QNXhWNsF-56">
          <mxGeometry y="128" width="250" height="26" as="geometry" />
        </mxCell>
        <mxCell id="l2nz5t12sQx5QNXhWNsF-60" value="" style="edgeStyle=elbowEdgeStyle;elbow=vertical;endArrow=classic;html=1;curved=0;rounded=0;endSize=8;startSize=8;" edge="1" parent="WIyWlLk6GJQsqaUBKTNV-1">
          <mxGeometry width="50" height="50" relative="1" as="geometry">
            <mxPoint x="1100" y="220" as="sourcePoint" />
            <mxPoint x="940" y="522" as="targetPoint" />
            <Array as="points">
              <mxPoint x="1020" y="482" />
            </Array>
          </mxGeometry>
        </mxCell>
        <mxCell id="l2nz5t12sQx5QNXhWNsF-61" value="Modal&amp;lt;IModalData&amp;gt;" style="swimlane;fontStyle=1;align=center;verticalAlign=top;childLayout=stackLayout;horizontal=1;startSize=26;horizontalStack=0;resizeParent=1;resizeParentMax=0;resizeLast=0;collapsible=1;marginBottom=0;whiteSpace=wrap;html=1;" vertex="1" parent="WIyWlLk6GJQsqaUBKTNV-1">
          <mxGeometry x="827" y="720" width="253" height="150" as="geometry" />
        </mxCell>
        <mxCell id="l2nz5t12sQx5QNXhWNsF-62" value="#&amp;nbsp;closeButton&amp;nbsp;: HTMLButtonElement&lt;div&gt;# content: HTMLElement&lt;/div&gt;" style="text;strokeColor=none;fillColor=none;align=left;verticalAlign=top;spacingLeft=4;spacingRight=4;overflow=hidden;rotatable=0;points=[[0,0.5],[1,0.5]];portConstraint=eastwest;whiteSpace=wrap;html=1;" vertex="1" parent="l2nz5t12sQx5QNXhWNsF-61">
          <mxGeometry y="26" width="253" height="54" as="geometry" />
        </mxCell>
        <mxCell id="l2nz5t12sQx5QNXhWNsF-63" value="" style="line;strokeWidth=1;fillColor=none;align=left;verticalAlign=middle;spacingTop=-1;spacingLeft=3;spacingRight=3;rotatable=0;labelPosition=right;points=[];portConstraint=eastwest;strokeColor=inherit;" vertex="1" parent="l2nz5t12sQx5QNXhWNsF-61">
          <mxGeometry y="80" width="253" height="8" as="geometry" />
        </mxCell>
        <mxCell id="l2nz5t12sQx5QNXhWNsF-64" value="open()&lt;div&gt;close()&lt;br&gt;&lt;/div&gt;&lt;div&gt;next()&lt;/div&gt;&lt;div&gt;render(data: IModalData): HTMLElement&lt;br&gt;&lt;/div&gt;&lt;div&gt;&lt;br&gt;&lt;/div&gt;" style="text;strokeColor=none;fillColor=none;align=left;verticalAlign=top;spacingLeft=4;spacingRight=4;overflow=hidden;rotatable=0;points=[[0,0.5],[1,0.5]];portConstraint=eastwest;whiteSpace=wrap;html=1;" vertex="1" parent="l2nz5t12sQx5QNXhWNsF-61">
          <mxGeometry y="88" width="253" height="62" as="geometry" />
        </mxCell>
        <mxCell id="l2nz5t12sQx5QNXhWNsF-65" value="" style="edgeStyle=segmentEdgeStyle;endArrow=classic;html=1;curved=0;rounded=0;endSize=8;startSize=8;exitX=0.178;exitY=1.015;exitDx=0;exitDy=0;exitPerimeter=0;" edge="1" parent="WIyWlLk6GJQsqaUBKTNV-1">
          <mxGeometry width="50" height="50" relative="1" as="geometry">
            <mxPoint x="1141.4499999999998" y="219.99999999999994" as="sourcePoint" />
            <mxPoint x="1080" y="800" as="targetPoint" />
            <Array as="points">
              <mxPoint x="1141" y="795" />
              <mxPoint x="1100" y="795" />
              <mxPoint x="1100" y="800" />
            </Array>
          </mxGeometry>
        </mxCell>
        <mxCell id="l2nz5t12sQx5QNXhWNsF-66" value="Basket&amp;lt;&lt;span style=&quot;color: rgb(218, 85, 255); background-color: rgb(17, 17, 17); font-family: Consolas, &amp;quot;Courier New&amp;quot;, monospace; font-size: 14px; font-weight: normal; white-space: pre;&quot;&gt;IBasket&lt;/span&gt;&lt;span style=&quot;background-color: initial;&quot;&gt;&amp;gt;&lt;/span&gt;" style="swimlane;fontStyle=1;align=center;verticalAlign=top;childLayout=stackLayout;horizontal=1;startSize=26;horizontalStack=0;resizeParent=1;resizeParentMax=0;resizeLast=0;collapsible=1;marginBottom=0;whiteSpace=wrap;html=1;" vertex="1" parent="WIyWlLk6GJQsqaUBKTNV-1">
          <mxGeometry x="827" y="920" width="253" height="144" as="geometry" />
        </mxCell>
        <mxCell id="l2nz5t12sQx5QNXhWNsF-67" value="list: HTMLElement&lt;div&gt;selected: string[]&lt;br&gt;&lt;/div&gt;&lt;div&gt;total: HTMLElement&lt;br&gt;&lt;/div&gt;" style="text;strokeColor=none;fillColor=none;align=left;verticalAlign=top;spacingLeft=4;spacingRight=4;overflow=hidden;rotatable=0;points=[[0,0.5],[1,0.5]];portConstraint=eastwest;whiteSpace=wrap;html=1;" vertex="1" parent="l2nz5t12sQx5QNXhWNsF-66">
          <mxGeometry y="26" width="253" height="84" as="geometry" />
        </mxCell>
        <mxCell id="l2nz5t12sQx5QNXhWNsF-68" value="" style="line;strokeWidth=1;fillColor=none;align=left;verticalAlign=middle;spacingTop=-1;spacingLeft=3;spacingRight=3;rotatable=0;labelPosition=right;points=[];portConstraint=eastwest;strokeColor=inherit;" vertex="1" parent="l2nz5t12sQx5QNXhWNsF-66">
          <mxGeometry y="110" width="253" height="8" as="geometry" />
        </mxCell>
        <mxCell id="l2nz5t12sQx5QNXhWNsF-69" value="+ method(type): type" style="text;strokeColor=none;fillColor=none;align=left;verticalAlign=top;spacingLeft=4;spacingRight=4;overflow=hidden;rotatable=0;points=[[0,0.5],[1,0.5]];portConstraint=eastwest;whiteSpace=wrap;html=1;" vertex="1" parent="l2nz5t12sQx5QNXhWNsF-66">
          <mxGeometry y="118" width="253" height="26" as="geometry" />
        </mxCell>
        <mxCell id="l2nz5t12sQx5QNXhWNsF-70" value="" style="edgeStyle=segmentEdgeStyle;endArrow=classic;html=1;curved=0;rounded=0;endSize=8;startSize=8;exitX=0.414;exitY=1.033;exitDx=0;exitDy=0;exitPerimeter=0;" edge="1" parent="WIyWlLk6GJQsqaUBKTNV-1">
          <mxGeometry width="50" height="50" relative="1" as="geometry">
            <mxPoint x="1191.3300000000002" y="220.00000000000003" as="sourcePoint" />
            <mxPoint x="1080" y="996" as="targetPoint" />
            <Array as="points">
              <mxPoint x="1169.49" y="220.04" />
              <mxPoint x="1169.49" y="996.04" />
            </Array>
          </mxGeometry>
        </mxCell>
        <mxCell id="l2nz5t12sQx5QNXhWNsF-71" value="&lt;div style=&quot;color: #ffffff;background-color: #111111;font-family: Consolas, &#39;Courier New&#39;, monospace;font-weight: normal;font-size: 14px;line-height: 19px;white-space: pre;&quot;&gt;&lt;span style=&quot;color: #da55ff;&quot;&gt;CongradulateWindow&lt;/span&gt;&amp;lt;&lt;span style=&quot;color: rgb(218, 85, 255);&quot;&gt;ICongradulateWindow&lt;/span&gt;&amp;gt;&lt;/div&gt;" style="swimlane;fontStyle=1;align=center;verticalAlign=top;childLayout=stackLayout;horizontal=1;startSize=26;horizontalStack=0;resizeParent=1;resizeParentMax=0;resizeLast=0;collapsible=1;marginBottom=0;whiteSpace=wrap;html=1;" vertex="1" parent="WIyWlLk6GJQsqaUBKTNV-1">
          <mxGeometry x="827" y="520" width="300" height="180" as="geometry" />
        </mxCell>
        <mxCell id="l2nz5t12sQx5QNXhWNsF-72" value="&lt;div style=&quot;color: #ffffff;background-color: #111111;font-family: Consolas, &#39;Courier New&#39;, monospace;font-weight: normal;font-size: 14px;line-height: 19px;white-space: pre;&quot;&gt;&lt;div&gt;&lt;span style=&quot;color: #1eabff;&quot;&gt;finnlyCoast&lt;/span&gt;&lt;span style=&quot;color: #ffffff;&quot;&gt;: &lt;/span&gt;&lt;span style=&quot;color: #da55ff;&quot;&gt;HTMLParagraphElement&lt;/span&gt;&lt;/div&gt;&lt;/div&gt;&lt;div&gt;&lt;br/&gt;&lt;/div&gt;" style="text;strokeColor=none;fillColor=none;align=left;verticalAlign=top;spacingLeft=4;spacingRight=4;overflow=hidden;rotatable=0;points=[[0,0.5],[1,0.5]];portConstraint=eastwest;whiteSpace=wrap;html=1;" vertex="1" parent="l2nz5t12sQx5QNXhWNsF-71">
          <mxGeometry y="26" width="300" height="26" as="geometry" />
        </mxCell>
        <mxCell id="l2nz5t12sQx5QNXhWNsF-75" value="&lt;div style=&quot;color: rgb(255, 255, 255); background-color: rgb(17, 17, 17); font-family: Consolas, &amp;quot;Courier New&amp;quot;, monospace; font-size: 14px; line-height: 19px; white-space: pre;&quot;&gt;&lt;span style=&quot;color: #1eabff;&quot;&gt;closeButton&lt;/span&gt;: &lt;span style=&quot;color: #da55ff;&quot;&gt;HTMLButtonElement&lt;/span&gt;&lt;/div&gt;" style="text;strokeColor=none;fillColor=none;align=left;verticalAlign=top;spacingLeft=4;spacingRight=4;overflow=hidden;rotatable=0;points=[[0,0.5],[1,0.5]];portConstraint=eastwest;whiteSpace=wrap;html=1;" vertex="1" parent="l2nz5t12sQx5QNXhWNsF-71">
          <mxGeometry y="52" width="300" height="58" as="geometry" />
        </mxCell>
        <mxCell id="l2nz5t12sQx5QNXhWNsF-73" value="" style="line;strokeWidth=1;fillColor=none;align=left;verticalAlign=middle;spacingTop=-1;spacingLeft=3;spacingRight=3;rotatable=0;labelPosition=right;points=[];portConstraint=eastwest;strokeColor=inherit;" vertex="1" parent="l2nz5t12sQx5QNXhWNsF-71">
          <mxGeometry y="110" width="300" height="8" as="geometry" />
        </mxCell>
        <mxCell id="l2nz5t12sQx5QNXhWNsF-74" value="&lt;div style=&quot;color: #ffffff;background-color: #111111;font-family: Consolas, &#39;Courier New&#39;, monospace;font-weight: normal;font-size: 14px;line-height: 19px;white-space: pre;&quot;&gt;&lt;div&gt;&lt;span style=&quot;color: #ff6000;&quot;&gt;setCoast&lt;/span&gt;&lt;span style=&quot;color: #ffffff;&quot;&gt;(&lt;/span&gt;&lt;span style=&quot;color: #1eabff;font-style: italic;&quot;&gt;value&lt;/span&gt;&lt;span style=&quot;color: #ffffff;&quot;&gt;: &lt;/span&gt;&lt;span style=&quot;color: #da55ff;&quot;&gt;Cost&lt;/span&gt;&lt;span style=&quot;color: #ffffff;&quot;&gt;)&lt;/span&gt;&lt;/div&gt;&lt;/div&gt;&lt;div&gt;&lt;div style=&quot;color: rgb(255, 255, 255); background-color: rgb(17, 17, 17); font-family: Consolas, &amp;quot;Courier New&amp;quot;, monospace; font-size: 14px; line-height: 19px; white-space: pre;&quot;&gt;&lt;span style=&quot;color: #ff6000;&quot;&gt;closeWindow&lt;/span&gt;()&lt;/div&gt;&lt;/div&gt;" style="text;strokeColor=none;fillColor=none;align=left;verticalAlign=top;spacingLeft=4;spacingRight=4;overflow=hidden;rotatable=0;points=[[0,0.5],[1,0.5]];portConstraint=eastwest;whiteSpace=wrap;html=1;" vertex="1" parent="l2nz5t12sQx5QNXhWNsF-71">
          <mxGeometry y="118" width="300" height="62" as="geometry" />
        </mxCell>
        <mxCell id="l2nz5t12sQx5QNXhWNsF-77" value="Contsct&amp;lt;IOrder&amp;gt;" style="swimlane;fontStyle=1;align=center;verticalAlign=top;childLayout=stackLayout;horizontal=1;startSize=26;horizontalStack=0;resizeParent=1;resizeParentMax=0;resizeLast=0;collapsible=1;marginBottom=0;whiteSpace=wrap;html=1;" vertex="1" parent="WIyWlLk6GJQsqaUBKTNV-1">
          <mxGeometry x="1654" y="520" width="186" height="108" as="geometry" />
        </mxCell>
        <mxCell id="l2nz5t12sQx5QNXhWNsF-78" value="phone(value:Text)&lt;div&gt;email(value: Text)&lt;br&gt;&lt;/div&gt;" style="text;strokeColor=none;fillColor=none;align=left;verticalAlign=top;spacingLeft=4;spacingRight=4;overflow=hidden;rotatable=0;points=[[0,0.5],[1,0.5]];portConstraint=eastwest;whiteSpace=wrap;html=1;" vertex="1" parent="l2nz5t12sQx5QNXhWNsF-77">
          <mxGeometry y="26" width="186" height="74" as="geometry" />
        </mxCell>
        <mxCell id="l2nz5t12sQx5QNXhWNsF-79" value="" style="line;strokeWidth=1;fillColor=none;align=left;verticalAlign=middle;spacingTop=-1;spacingLeft=3;spacingRight=3;rotatable=0;labelPosition=right;points=[];portConstraint=eastwest;strokeColor=inherit;" vertex="1" parent="l2nz5t12sQx5QNXhWNsF-77">
          <mxGeometry y="100" width="186" height="8" as="geometry" />
        </mxCell>
        <mxCell id="l2nz5t12sQx5QNXhWNsF-81" value="Delyvery&amp;lt;IOrder&amp;gt;" style="swimlane;fontStyle=1;align=center;verticalAlign=top;childLayout=stackLayout;horizontal=1;startSize=26;horizontalStack=0;resizeParent=1;resizeParentMax=0;resizeLast=0;collapsible=1;marginBottom=0;whiteSpace=wrap;html=1;" vertex="1" parent="WIyWlLk6GJQsqaUBKTNV-1">
          <mxGeometry x="1960" y="520" width="210" height="118" as="geometry" />
        </mxCell>
        <mxCell id="l2nz5t12sQx5QNXhWNsF-82" value="addres(value:Text)&lt;div&gt;payButtons: HTMLButtonElement[]&lt;/div&gt;" style="text;strokeColor=none;fillColor=none;align=left;verticalAlign=top;spacingLeft=4;spacingRight=4;overflow=hidden;rotatable=0;points=[[0,0.5],[1,0.5]];portConstraint=eastwest;whiteSpace=wrap;html=1;" vertex="1" parent="l2nz5t12sQx5QNXhWNsF-81">
          <mxGeometry y="26" width="210" height="54" as="geometry" />
        </mxCell>
        <mxCell id="l2nz5t12sQx5QNXhWNsF-84" value="&lt;div style=&quot;color: #ffffff;background-color: #111111;font-family: Consolas, &#39;Courier New&#39;, monospace;font-weight: normal;font-size: 14px;line-height: 19px;white-space: pre;&quot;&gt;&lt;div&gt;&lt;span style=&quot;color: #ff6000;&quot;&gt;setPayment&lt;/span&gt;&lt;span style=&quot;color: #ffffff;&quot;&gt;(&lt;/span&gt;&lt;span style=&quot;color: #1eabff;font-style: italic;&quot;&gt;name&lt;/span&gt;&lt;span style=&quot;color: #ffffff;&quot;&gt;: &lt;/span&gt;&lt;span style=&quot;color: #da55ff;&quot;&gt;string&lt;/span&gt;&lt;span style=&quot;color: #ffffff;&quot;&gt;)&lt;/span&gt;&lt;/div&gt;&lt;/div&gt;&lt;div&gt;&lt;br/&gt;&lt;/div&gt;" style="text;strokeColor=none;fillColor=none;align=left;verticalAlign=top;spacingLeft=4;spacingRight=4;overflow=hidden;rotatable=0;points=[[0,0.5],[1,0.5]];portConstraint=eastwest;whiteSpace=wrap;html=1;" vertex="1" parent="l2nz5t12sQx5QNXhWNsF-81">
          <mxGeometry y="80" width="210" height="30" as="geometry" />
        </mxCell>
        <mxCell id="l2nz5t12sQx5QNXhWNsF-83" value="" style="line;strokeWidth=1;fillColor=none;align=left;verticalAlign=middle;spacingTop=-1;spacingLeft=3;spacingRight=3;rotatable=0;labelPosition=right;points=[];portConstraint=eastwest;strokeColor=inherit;" vertex="1" parent="l2nz5t12sQx5QNXhWNsF-81">
          <mxGeometry y="110" width="210" height="8" as="geometry" />
        </mxCell>
        <mxCell id="l2nz5t12sQx5QNXhWNsF-88" value="" style="edgeStyle=segmentEdgeStyle;endArrow=classic;html=1;curved=0;rounded=0;endSize=8;startSize=8;entryX=0.5;entryY=0;entryDx=0;entryDy=0;exitX=0.742;exitY=1.128;exitDx=0;exitDy=0;exitPerimeter=0;" edge="1" parent="WIyWlLk6GJQsqaUBKTNV-1" source="l2nz5t12sQx5QNXhWNsF-59" target="l2nz5t12sQx5QNXhWNsF-81">
          <mxGeometry width="50" height="50" relative="1" as="geometry">
            <mxPoint x="1940" y="330" as="sourcePoint" />
            <mxPoint x="1990" y="280" as="targetPoint" />
          </mxGeometry>
        </mxCell>
        <mxCell id="l2nz5t12sQx5QNXhWNsF-89" value="" style="edgeStyle=segmentEdgeStyle;endArrow=classic;html=1;curved=0;rounded=0;endSize=8;startSize=8;entryX=0;entryY=0;entryDx=0;entryDy=0;" edge="1" parent="WIyWlLk6GJQsqaUBKTNV-1">
          <mxGeometry width="50" height="50" relative="1" as="geometry">
            <mxPoint x="1880" y="224" as="sourcePoint" />
            <mxPoint x="1750" y="520" as="targetPoint" />
          </mxGeometry>
        </mxCell>
        <mxCell id="l2nz5t12sQx5QNXhWNsF-90" value="ChooseItem&amp;lt;&lt;span style=&quot;color: rgb(218, 85, 255); background-color: rgb(17, 17, 17); font-family: Consolas, &amp;quot;Courier New&amp;quot;, monospace; font-size: 14px; white-space: pre;&quot;&gt;ChooseItems&lt;/span&gt;&lt;span style=&quot;background-color: initial;&quot;&gt;&amp;gt;&lt;/span&gt;" style="swimlane;fontStyle=0;childLayout=stackLayout;horizontal=1;startSize=26;fillColor=none;horizontalStack=0;resizeParent=1;resizeParentMax=0;resizeLast=0;collapsible=1;marginBottom=0;whiteSpace=wrap;html=1;" vertex="1" parent="WIyWlLk6GJQsqaUBKTNV-1">
          <mxGeometry x="1300" y="780" width="300" height="150" as="geometry" />
        </mxCell>
        <mxCell id="l2nz5t12sQx5QNXhWNsF-93" value="&lt;br&gt;&lt;div style=&quot;color: #ffffff;background-color: #111111;font-family: Consolas, &#39;Courier New&#39;, monospace;font-weight: normal;font-size: 14px;line-height: 19px;white-space: pre;&quot;&gt;&lt;div&gt;&lt;span style=&quot;color: #ffffff;&quot;&gt;&amp;nbsp; &lt;/span&gt;&lt;span style=&quot;color: #1eabff;&quot;&gt;id&lt;/span&gt;&lt;span style=&quot;color: #ffffff;&quot;&gt;: &lt;/span&gt;&lt;span style=&quot;color: #da55ff;&quot;&gt;string&lt;/span&gt;&lt;span style=&quot;color: #ffffff;&quot;&gt;;&lt;/span&gt;&lt;/div&gt;&lt;div&gt;&lt;span style=&quot;color: #ffffff;&quot;&gt;&amp;nbsp; &lt;/span&gt;&lt;span style=&quot;color: #1eabff;&quot;&gt;name&lt;/span&gt;&lt;span style=&quot;color: #ffffff;&quot;&gt;: &lt;/span&gt;&lt;span style=&quot;color: #da55ff;&quot;&gt;Text&lt;/span&gt;&lt;span style=&quot;color: #ffffff;&quot;&gt;;&lt;/span&gt;&lt;/div&gt;&lt;div&gt;&lt;span style=&quot;color: #ffffff;&quot;&gt;&amp;nbsp; &lt;/span&gt;&lt;span style=&quot;color: #1eabff;&quot;&gt;price&lt;/span&gt;&lt;span style=&quot;color: #ffffff;&quot;&gt;: &lt;/span&gt;&lt;span style=&quot;color: #da55ff;&quot;&gt;Cost&lt;/span&gt;&lt;span style=&quot;color: #ffffff;&quot;&gt; | &lt;/span&gt;&lt;span style=&quot;color: #da55ff;&quot;&gt;null&lt;/span&gt;&lt;span style=&quot;color: #ffffff;&quot;&gt;;&lt;/span&gt;&lt;/div&gt;&lt;div&gt;&lt;span style=&quot;color: #ffffff;&quot;&gt;&amp;nbsp; &lt;/span&gt;&lt;span style=&quot;color: #1eabff;&quot;&gt;index&lt;/span&gt;&lt;span style=&quot;color: #ffffff;&quot;&gt;: &lt;/span&gt;&lt;span style=&quot;color: #da55ff;&quot;&gt;number&lt;/span&gt;&lt;span style=&quot;color: #ffffff;&quot;&gt;;&lt;/span&gt;&lt;/div&gt;&lt;/div&gt;&lt;div&gt;&lt;div style=&quot;color: rgb(255, 255, 255); background-color: rgb(17, 17, 17); font-family: Consolas, &amp;quot;Courier New&amp;quot;, monospace; font-size: 14px; line-height: 19px; white-space: pre;&quot;&gt;&lt;span style=&quot;color: #1eabff;&quot;&gt;  button&lt;/span&gt;: &lt;span style=&quot;color: #da55ff;&quot;&gt;HTMLButtonElement&lt;/span&gt;&lt;/div&gt;&lt;/div&gt;&lt;div&gt;&lt;br&gt;&lt;/div&gt;" style="text;strokeColor=none;fillColor=none;align=left;verticalAlign=top;spacingLeft=4;spacingRight=4;overflow=hidden;rotatable=0;points=[[0,0.5],[1,0.5]];portConstraint=eastwest;whiteSpace=wrap;html=1;" vertex="1" parent="l2nz5t12sQx5QNXhWNsF-90">
          <mxGeometry y="26" width="300" height="124" as="geometry" />
        </mxCell>
        <mxCell id="l2nz5t12sQx5QNXhWNsF-94" value="" style="edgeStyle=segmentEdgeStyle;endArrow=classic;html=1;curved=0;rounded=0;endSize=8;startSize=8;" edge="1" parent="WIyWlLk6GJQsqaUBKTNV-1">
          <mxGeometry width="50" height="50" relative="1" as="geometry">
            <mxPoint x="1640" y="140" as="sourcePoint" />
            <mxPoint x="1880" y="140" as="targetPoint" />
          </mxGeometry>
        </mxCell>
        <mxCell id="l2nz5t12sQx5QNXhWNsF-96" value="Card&amp;lt;ICard&amp;gt;" style="swimlane;fontStyle=0;childLayout=stackLayout;horizontal=1;startSize=26;fillColor=none;horizontalStack=0;resizeParent=1;resizeParentMax=0;resizeLast=0;collapsible=1;marginBottom=0;whiteSpace=wrap;html=1;" vertex="1" parent="WIyWlLk6GJQsqaUBKTNV-1">
          <mxGeometry x="1750" y="800" width="290" height="188" as="geometry" />
        </mxCell>
        <mxCell id="l2nz5t12sQx5QNXhWNsF-99" value="&lt;br&gt;&lt;div style=&quot;color: #ffffff;background-color: #111111;font-family: Consolas, &#39;Courier New&#39;, monospace;font-weight: normal;font-size: 14px;line-height: 19px;white-space: pre;&quot;&gt;&lt;div&gt;&lt;div style=&quot;line-height: 19px;&quot;&gt;&lt;div&gt;&lt;span style=&quot;color: #1eabff;&quot;&gt;  id&lt;/span&gt;: &lt;span style=&quot;color: #da55ff;&quot;&gt;string&lt;/span&gt;;&lt;/div&gt;&lt;div&gt;&amp;nbsp; &lt;span style=&quot;color: #1eabff;&quot;&gt;description&lt;/span&gt;&lt;span style=&quot;color: #ffcf13;&quot;&gt;?&lt;/span&gt;: &lt;span style=&quot;color: #da55ff;&quot;&gt;Text&lt;/span&gt;;&lt;/div&gt;&lt;div&gt;&amp;nbsp; &lt;span style=&quot;color: #1eabff;&quot;&gt;image&lt;/span&gt;: &lt;span style=&quot;color: #da55ff;&quot;&gt;Url&lt;/span&gt;;&lt;/div&gt;&lt;div&gt;&amp;nbsp; &lt;span style=&quot;color: #1eabff;&quot;&gt;name&lt;/span&gt;: &lt;span style=&quot;color: #da55ff;&quot;&gt;Text&lt;/span&gt;;&lt;/div&gt;&lt;div&gt;&amp;nbsp; &lt;span style=&quot;color: #1eabff;&quot;&gt;category&lt;/span&gt;: &lt;span style=&quot;color: #da55ff;&quot;&gt;Text&lt;/span&gt;;&lt;/div&gt;&lt;div&gt;&amp;nbsp; &lt;span style=&quot;color: #1eabff;&quot;&gt;price&lt;/span&gt;: &lt;span style=&quot;color: #da55ff;&quot;&gt;Cost&lt;/span&gt; | &lt;span style=&quot;color: #da55ff;&quot;&gt;null&lt;/span&gt;;&lt;/div&gt;&lt;/div&gt;&lt;/div&gt;&lt;div&gt;&lt;span style=&quot;color: #1eabff;&quot;&gt;  button&lt;/span&gt;&lt;span style=&quot;color: #ffffff;&quot;&gt;: &lt;/span&gt;&lt;span style=&quot;color: #da55ff;&quot;&gt;HTMLButtonElement&lt;/span&gt;&lt;span style=&quot;color: #ffffff;&quot;&gt;;&lt;/span&gt;&lt;/div&gt;&lt;/div&gt;&lt;div&gt;&lt;br&gt;&lt;/div&gt;" style="text;strokeColor=none;fillColor=none;align=left;verticalAlign=top;spacingLeft=4;spacingRight=4;overflow=hidden;rotatable=0;points=[[0,0.5],[1,0.5]];portConstraint=eastwest;whiteSpace=wrap;html=1;" vertex="1" parent="l2nz5t12sQx5QNXhWNsF-96">
          <mxGeometry y="26" width="290" height="162" as="geometry" />
        </mxCell>
        <mxCell id="l2nz5t12sQx5QNXhWNsF-100" value="" style="edgeStyle=elbowEdgeStyle;elbow=vertical;endArrow=classic;html=1;curved=0;rounded=0;endSize=8;startSize=8;exitX=0.562;exitY=1.031;exitDx=0;exitDy=0;exitPerimeter=0;" edge="1" parent="WIyWlLk6GJQsqaUBKTNV-1" source="l2nz5t12sQx5QNXhWNsF-44">
          <mxGeometry width="50" height="50" relative="1" as="geometry">
            <mxPoint x="1870" y="850" as="sourcePoint" />
            <mxPoint x="1920" y="800" as="targetPoint" />
            <Array as="points">
              <mxPoint x="1650" y="710" />
            </Array>
          </mxGeometry>
        </mxCell>
        <mxCell id="l2nz5t12sQx5QNXhWNsF-103" value="" style="edgeStyle=segmentEdgeStyle;endArrow=classic;html=1;curved=0;rounded=0;endSize=8;startSize=8;" edge="1" parent="WIyWlLk6GJQsqaUBKTNV-1" source="l2nz5t12sQx5QNXhWNsF-44">
          <mxGeometry width="50" height="50" relative="1" as="geometry">
            <mxPoint x="1300" y="670" as="sourcePoint" />
            <mxPoint x="1351" y="777" as="targetPoint" />
            <Array as="points" />
          </mxGeometry>
        </mxCell>
      </root>
    </mxGraphModel>
  </diagram>
</mxfile>
